<svg xmlns="http://www.w3.org/2000/svg" viewBox="0 0 512 512"><defs><style>.cls-2{fill:#ecb957}.cls-3{fill:#fff;opacity:.3}.cls-4{fill:#049146}.cls-5{fill:#dca44b}</style></defs><circle cx="256" cy="256" r="256" style="fill:#f6bb37" id="BULINE"/><g id="Fruits"><circle class="cls-2" cx="361.83" cy="381.93" r="90.07"/><path class="cls-3" d="M306.67 385.28a10.09 10.09 0 0 1-1.09-.06 9.92 9.92 0 0 1-8.78-10.94c1.69-15.51 8.48-29.55 19.12-39.53a9.92 9.92 0 1 1 13.58 14.46c-7.19 6.75-11.8 16.42-13 27.22a9.92 9.92 0 0 1-9.83 8.85z"/><path d="M389.06 440.9a5 5 0 0 0-6.41-3l-.41.15a5 5 0 0 0 3.32 9.42l.55-.2a5 5 0 0 0 2.95-6.37zm35.16-41.06a5 5 0 0 0-6.41 3 60 60 0 0 1-5.37 10.91 58.86 58.86 0 0 1-14.81 16.11 5 5 0 0 0 6 8 69.29 69.29 0 0 0 5.7-4.75l.07-.06.07-.06.08-.07.07-.07.08-.07.07-.07.07-.07a.23.23 0 0 1 .07-.07l.06-.07a.23.23 0 0 1 .07-.07l.06-.07.06-.07.06-.06.07-.07.07-.07.07-.07.07-.07.06-.07.06-.07.06-.07.06-.07a67.81 67.81 0 0 0 7.26-9.43.35.35 0 0 1 .05-.08l.06-.08a.56.56 0 0 0 .05-.08v-.2l.06-.1a68.55 68.55 0 0 0 4.84-10.37 5 5 0 0 0 1.16-11.49z"/><circle class="cls-2" cx="151.07" cy="381.93" r="90.07"/><path class="cls-4" d="M191 48.75c-60 0-90 43.25-90 43.25s30 43.25 90 43.25S281 92 281 92s-30-43.25-90-43.25z"/><path class="cls-3" d="M95.91 385.28a9.94 9.94 0 0 1-9.88-11c1.7-15.51 8.49-29.55 19.12-39.53a9.92 9.92 0 1 1 13.58 14.46c-7.18 6.75-11.79 16.42-13 27.22a9.94 9.94 0 0 1-9.82 8.85z"/><path d="M178.29 440.9a5 5 0 0 0-6.41-3l-.41.15a5 5 0 0 0 3.33 9.42l.55-.2a5 5 0 0 0 2.94-6.37zm35.16-41.06a5 5 0 0 0-6.41 3 60.64 60.64 0 0 1-5.36 10.91 58.9 58.9 0 0 1-14.82 16.11 5 5 0 0 0 6 8 70.86 70.86 0 0 0 5.69-4.75l.07-.06.07-.06.08-.07.07-.07.08-.07.07-.07.07-.07a.23.23 0 0 1 .07-.07l.06-.07a.23.23 0 0 1 .07-.07l.06-.07.06-.07.06-.06.07-.07.07-.07.07-.07.07-.07.06-.07.06-.07.06-.07.06-.07a69.38 69.38 0 0 0 7.26-9.43.35.35 0 0 1 0-.08l.06-.08a.56.56 0 0 0 0-.08v-.2l.06-.1a69.47 69.47 0 0 0 4.83-10.37 5 5 0 0 0 1.28-11.49z"/><circle class="cls-5" cx="131" cy="402" r="10"/><circle class="cls-5" cx="131" cy="432" r="10"/><circle class="cls-5" cx="101" cy="412" r="10"/><circle class="cls-5" cx="161" cy="412" r="10"/><circle class="cls-5" cx="341" cy="402" r="10"/><circle class="cls-5" cx="341" cy="432" r="10"/><circle class="cls-5" cx="311" cy="412" r="10"/><circle class="cls-5" cx="371" cy="412" r="10"/><path class="cls-4" d="M309.21 198.88c20.13 35.74 56 39.1 56 39.1s15.7-32.38-4.42-68.12-56-39.11-56-39.11-15.7 32.38 4.42 68.13z"/><path d="M309.21 198.88c20.13 35.74 56 39.1 56 39.1s15.7-32.38-4.42-68.12A78.3 78.3 0 0 0 311.21 132l-10.39-18.45-.06-.1 48.53-88a5 5 0 0 0-8.76-4.83L303.91 87H277a114.44 114.44 0 0 0-86-38.25c-60 0-90 43.25-90 43.25s30 43.25 90 43.25A114.44 114.44 0 0 0 277 97h21.43l-41.64 75.47-.72.08c0 .1.05.45.12 1l-69.53 126a5 5 0 0 0 8.76 4.84l63.54-115.17a262.82 262.82 0 0 0 9.88 34.46c9.38 25.79 27.3 61 59.43 82.45l5.54-8.32C283.5 264.32 269.33 193 266.54 175.43l28.54-51.73 7.42 13.17a78.27 78.27 0 0 0 6.71 62.01zM252 106a106.22 106.22 0 0 1-122 0 103.58 103.58 0 0 1-16-14 105.42 105.42 0 0 1 149-5c1.95 1.82 3.62 3.52 5 5-1.36 1.48-3 3.18-5 5a105 105 0 0 1-11 9zm59.3 36.37a70.72 70.72 0 0 1 7.15 2.52q1.57.64 3.24 1.44a69.46 69.46 0 0 1 38.94 69.16 69.79 69.79 0 0 1-2 10.93 69.41 69.41 0 0 1-10.39-3.95 69.46 69.46 0 0 1-38.94-69.16q.19-1.83.45-3.51a67.18 67.18 0 0 1 1.57-7.46z" style="fill:#010101"/></g><g id="Black_outlines_-_to_remove" data-name="Black outlines - to remove"><path d="M361.83 301.87a80.07 80.07 0 1 1-80.06 80.06 80.15 80.15 0 0 1 80.06-80.06m0-10a90.07 90.07 0 1 0 90.07 90.06 90.06 90.06 0 0 0-90.07-90.06zM151.07 301.87A80.07 80.07 0 1 1 71 381.93a80.14 80.14 0 0 1 80.07-80.06m0-10a90.07 90.07 0 1 0 90.06 90.06 90.06 90.06 0 0 0-90.06-90.06z"/></g></svg>